<svg xmlns="http://www.w3.org/2000/svg" xmlns:xlink="http://www.w3.org/1999/xlink"><symbol id="close-button" viewBox="0 0 20 20"><g fill="none">
<path fill-rule="evenodd" clip-rule="evenodd" d="M0.177086 1.03109C-0.0587882 0.795211 -0.0587881 0.412781 0.177087 0.176905C0.412961 -0.0589705 0.79539 -0.0589706 1.03126 0.176905L10.0001 9.14577L18.9689 0.17691C19.2048 -0.0589653 19.5872 -0.0589653 19.8231 0.176911C20.059 0.412786 20.059 0.795217 19.8231 1.03109L10.8543 9.99996L19.8232 18.9689C20.0591 19.2048 20.0591 19.5872 19.8232 19.8231C19.5873 20.059 19.2049 20.059 18.969 19.8231L10.0001 10.8541L1.03118 19.8231C0.795303 20.059 0.412874 20.059 0.176999 19.8231C-0.0588753 19.5872 -0.0588755 19.2048 0.176999 18.9689L9.14592 9.99996L0.177086 1.03109Z" fill="white"/>
</g></symbol><symbol id="email" viewBox="0 0 21 20"><g fill="none">
  <path d="M18.058 0H2.946C1.596 0 .5 1.441.5 3.214v13.572C.5 18.56 1.597 20 2.946 20h15.108c1.35 0 2.446-1.441 2.446-3.214V3.22C20.504 1.446 19.407 0 18.058 0Zm1.329 16.786c0 .963-.596 1.746-1.329 1.746H2.946c-.733 0-1.329-.783-1.329-1.746V3.22c0-.962.596-1.745 1.329-1.745h15.108c.733 0 1.329.783 1.329 1.745v13.567h.004Z" fill="#00B2FF"/>
  <path d="m13.113 9.831 4.892-5.764c.227-.271.248-.734.041-1.038-.207-.3-.559-.326-.79-.055L10.51 10.93 9.194 9.386c-.004-.006-.008-.011-.008-.017a.946.946 0 0 0-.09-.103L3.74 2.969c-.231-.272-.583-.245-.79.06-.207.304-.186.767.045 1.038l4.95 5.813-4.929 6.063c-.223.278-.236.74-.025 1.04.112.151.261.233.41.233a.495.495 0 0 0 .38-.196l5.004-6.15 1.357 1.593a.49.49 0 0 0 .373.185.49.49 0 0 0 .372-.19l1.395-1.642 4.974 6.21a.493.493 0 0 0 .384.2.505.505 0 0 0 .406-.228c.211-.293.203-.76-.02-1.038l-4.914-6.13Z" fill="#00B2FF"/>
</g></symbol><symbol id="logo-desktop" viewBox="0 0 215 55"><g fill="none">
  <path d="M78.96 23.325a4.06 4.06 0 0 0-.085-.867 1.66 1.66 0 0 0-.367-.72c-.179-.22-.443-.44-.793-.66a9.215 9.215 0 0 0-1.343-.683c-.66-.277-1.298-.57-1.916-.879a9.005 9.005 0 0 1-1.673-1.098 4.772 4.772 0 0 1-1.184-1.465c-.285-.57-.427-1.237-.427-2.002 0-.749.134-1.428.403-2.039a4.443 4.443 0 0 1 1.172-1.562 5.35 5.35 0 0 1 1.77-1.014c.683-.236 1.444-.354 2.282-.354 1.14 0 2.124.236 2.954.708a4.946 4.946 0 0 1 1.941 1.941c.464.822.696 1.766.696 2.832h-3.564c0-.504-.074-.948-.22-1.33a1.843 1.843 0 0 0-.671-.916c-.31-.22-.708-.33-1.197-.33-.455 0-.834.094-1.135.281a1.675 1.675 0 0 0-.66.745c-.138.31-.207.66-.207 1.05 0 .293.07.557.208.793.146.228.346.436.598.623.252.179.55.354.891.525.35.17.732.337 1.148.5a13.4 13.4 0 0 1 2.136 1.05 6.576 6.576 0 0 1 1.55 1.27c.415.463.728.988.94 1.574.212.586.317 1.254.317 2.002 0 .74-.13 1.416-.39 2.027a4.328 4.328 0 0 1-1.111 1.562 5.147 5.147 0 0 1-1.77 1.001c-.684.236-1.449.354-2.295.354-.822 0-1.6-.114-2.332-.342a5.698 5.698 0 0 1-1.94-1.062 4.994 4.994 0 0 1-1.307-1.819c-.317-.74-.476-1.615-.476-2.624h3.577c0 .537.053.997.159 1.38.106.374.268.675.488.903.22.22.488.386.806.5.325.106.695.159 1.11.159.472 0 .847-.09 1.123-.269.285-.179.489-.419.61-.72.123-.301.184-.643.184-1.025Zm9.253-5.799V28h-3.43V14.792h3.222l.208 2.734Zm-.488 3.418-.94.025c-.017-.928.065-1.783.244-2.564.179-.781.447-1.46.806-2.038a3.953 3.953 0 0 1 1.379-1.343c.553-.317 1.2-.476 1.94-.476.48 0 .925.09 1.331.268.407.171.761.444 1.062.818.302.366.533.847.696 1.44.163.587.244 1.29.244 2.112V28H91.07v-8.398c0-.586-.057-1.034-.17-1.343-.115-.318-.277-.537-.489-.66-.211-.13-.472-.195-.781-.195-.326 0-.61.09-.855.269a1.952 1.952 0 0 0-.598.757c-.146.317-.26.691-.341 1.123-.074.431-.11.895-.11 1.391Zm6.433-.341-1.233.158c-.016-.87.06-1.68.232-2.429.17-.757.435-1.416.793-1.977a3.959 3.959 0 0 1 1.343-1.331c.545-.317 1.176-.476 1.892-.476.537 0 1.025.09 1.465.268.44.18.814.468 1.123.867.317.39.557.907.72 1.55.171.643.257 1.425.257 2.344V28h-3.43v-8.41c0-.595-.058-1.05-.172-1.368-.114-.317-.276-.533-.488-.647a1.575 1.575 0 0 0-.757-.17c-.293 0-.549.08-.769.243-.211.163-.39.391-.537.684a3.703 3.703 0 0 0-.33 1.013c-.073.383-.11.802-.11 1.258Zm14.99 4.357v-6.103c0-.399-.049-.716-.147-.952a.941.941 0 0 0-.415-.513 1.202 1.202 0 0 0-.659-.17c-.293 0-.537.06-.732.182a1.125 1.125 0 0 0-.44.525c-.089.228-.134.5-.134.818h-3.43c0-.57.11-1.107.33-1.611.219-.513.541-.96.964-1.343a4.68 4.68 0 0 1 1.538-.916c.594-.22 1.261-.33 2.002-.33.879 0 1.66.151 2.344.452a3.492 3.492 0 0 1 1.623 1.404c.399.643.598 1.477.598 2.503v5.884c0 .74.037 1.342.11 1.806.082.464.2.863.354 1.197V28h-3.442c-.155-.366-.273-.822-.354-1.367a12.785 12.785 0 0 1-.11-1.673Zm.415-5.029.012 2.05h-1.257c-.326 0-.61.054-.855.16a1.644 1.644 0 0 0-.598.451 1.853 1.853 0 0 0-.366.66c-.073.252-.11.52-.11.805 0 .318.045.586.134.806.09.22.224.386.403.5.179.114.391.171.635.171.374 0 .7-.077.977-.232.276-.154.48-.342.61-.561.138-.22.183-.424.134-.61l.781 1.33a5.964 5.964 0 0 1-.402.94 3.994 3.994 0 0 1-.623.903 3.013 3.013 0 0 1-.94.684c-.366.17-.801.256-1.306.256a3.93 3.93 0 0 1-1.941-.488 3.625 3.625 0 0 1-1.392-1.367c-.333-.586-.5-1.282-.5-2.088 0-.667.106-1.27.317-1.806.22-.546.546-1.005.977-1.38.431-.382.976-.675 1.636-.879.659-.203 1.432-.305 2.319-.305h1.355Zm8.972-2.197V28h-3.418V14.792h3.223l.195 2.942Zm3.113-3.04-.049 3.406a4.323 4.323 0 0 0-.561-.073 7.424 7.424 0 0 0-.562-.025c-.382 0-.708.062-.976.184a1.628 1.628 0 0 0-.672.524 2.428 2.428 0 0 0-.39.855c-.09.342-.143.728-.159 1.16l-.647-.245c0-.862.065-1.652.195-2.368.138-.724.342-1.35.611-1.88.268-.537.59-.952.964-1.245.382-.293.814-.44 1.294-.44.163 0 .333.017.512.05.188.024.334.057.44.097Zm8.118.098v2.576h-6.739v-2.576h6.739Zm-5.188-3.26h3.405v12.44c0 .366.037.647.11.842.074.195.183.334.33.415.154.073.358.11.61.11.171 0 .33-.008.476-.024a2.33 2.33 0 0 0 .33-.074v2.674a4.748 4.748 0 0 1-.855.244 5.575 5.575 0 0 1-1.049.085c-.684 0-1.278-.13-1.783-.39-.496-.26-.883-.676-1.159-1.246-.277-.577-.415-1.334-.415-2.27V11.533ZM142.241 28h-3.137l.024-2.954h3.113c.863 0 1.534-.155 2.014-.464.481-.31.818-.797 1.014-1.465.203-.667.305-1.542.305-2.624v-2.771c0-.822-.053-1.518-.159-2.088-.106-.578-.285-1.041-.537-1.391a2.23 2.23 0 0 0-1.013-.794c-.423-.17-.948-.256-1.575-.256h-3.247v-2.966h3.247c1.025 0 1.957.166 2.795.5a5.913 5.913 0 0 1 2.161 1.465c.602.635 1.066 1.42 1.392 2.356.325.936.488 2.002.488 3.198v2.747c0 1.204-.163 2.27-.488 3.198-.326.928-.79 1.713-1.392 2.356a5.852 5.852 0 0 1-2.161 1.453c-.846.333-1.794.5-2.844.5Zm-1.062-17.773V28h-3.576V10.227h3.576Zm15.711 18.017c-.904 0-1.705-.138-2.405-.415a4.754 4.754 0 0 1-1.758-1.196 5.375 5.375 0 0 1-1.099-1.917c-.252-.748-.378-1.603-.378-2.563v-1.087c0-1.074.122-2.014.366-2.82.244-.813.59-1.497 1.038-2.05a4.096 4.096 0 0 1 1.648-1.233c.659-.277 1.404-.415 2.234-.415.83 0 1.558.138 2.185.415a3.813 3.813 0 0 1 1.574 1.22c.415.538.729 1.205.94 2.003.212.797.318 1.725.318 2.783v1.562h-8.85v-2.404h5.493v-.306c0-.537-.057-.984-.171-1.343-.114-.366-.293-.638-.537-.817-.244-.18-.57-.269-.977-.269-.342 0-.63.07-.866.208a1.426 1.426 0 0 0-.562.647c-.138.293-.24.675-.305 1.147a12.268 12.268 0 0 0-.098 1.672v1.087c0 .61.053 1.123.159 1.538.106.407.26.74.464 1 .211.253.468.436.769.55.301.106.651.159 1.05.159.602 0 1.143-.106 1.623-.317.488-.22.903-.517 1.245-.892l1.367 2.076c-.236.309-.561.618-.976.927a5.31 5.31 0 0 1-1.489.757c-.578.195-1.246.293-2.002.293Zm10.363-2.88 2.124-10.572h3.565L169.316 28h-2.136l.073-2.637Zm-1.257-10.572 2.161 10.583.036 2.625h-2.148l-3.626-13.208h3.577Zm12.183 0V28h-3.43V14.792h3.43Zm-3.589-3.418c0-.529.167-.964.5-1.306.342-.35.798-.525 1.368-.525.577 0 1.033.175 1.367.525.333.342.5.777.5 1.306 0 .52-.171.956-.513 1.306-.333.342-.781.513-1.342.513-.578 0-1.038-.171-1.38-.513-.333-.35-.5-.785-.5-1.306ZM185.662 25.4c.317 0 .59-.065.817-.195.236-.13.416-.342.538-.635.122-.293.187-.672.195-1.135h3.21c0 .992-.211 1.851-.634 2.575a4.345 4.345 0 0 1-1.685 1.66c-.7.383-1.493.574-2.38.574-.887 0-1.661-.142-2.32-.427a4.142 4.142 0 0 1-1.635-1.245c-.424-.546-.745-1.209-.965-1.99-.211-.79-.317-1.693-.317-2.71v-.964c0-1.001.106-1.896.317-2.686.22-.79.541-1.457.965-2.002a4.16 4.16 0 0 1 1.623-1.245c.659-.285 1.432-.427 2.319-.427.953 0 1.779.2 2.478.598.7.39 1.246.968 1.636 1.733.399.765.598 1.71.598 2.832h-3.21c-.008-.504-.069-.923-.183-1.257-.106-.342-.273-.602-.501-.781-.219-.187-.512-.28-.879-.28-.382 0-.691.08-.927.243a1.46 1.46 0 0 0-.525.684c-.114.293-.191.659-.232 1.099-.041.439-.061.935-.061 1.489v.964c0 .594.016 1.11.049 1.55.04.432.118.798.232 1.099.122.293.297.513.524.66.236.146.554.219.953.219Zm12.048 2.844c-.903 0-1.705-.138-2.405-.415a4.762 4.762 0 0 1-1.758-1.196 5.35 5.35 0 0 1-1.098-1.917c-.253-.748-.379-1.603-.379-2.563v-1.087c0-1.074.122-2.014.367-2.82.244-.813.59-1.497 1.037-2.05a4.103 4.103 0 0 1 1.648-1.233c.659-.277 1.404-.415 2.234-.415.83 0 1.558.138 2.185.415a3.81 3.81 0 0 1 1.575 1.22c.415.538.728 1.205.94 2.003.211.797.317 1.725.317 2.783v1.562h-8.85v-2.404h5.493v-.306c0-.537-.057-.984-.171-1.343-.114-.366-.293-.638-.537-.817-.244-.18-.57-.269-.976-.269-.342 0-.631.07-.867.208-.236.138-.423.354-.562.647-.138.293-.24.675-.305 1.147a12.268 12.268 0 0 0-.098 1.672v1.087c0 .61.053 1.123.159 1.538.106.407.261.74.464 1 .212.253.468.436.769.55.301.106.651.159 1.05.159.602 0 1.143-.106 1.623-.317a3.74 3.74 0 0 0 1.246-.892l1.367 2.076c-.236.309-.562.618-.977.927-.415.31-.911.562-1.489.757-.578.195-1.245.293-2.002.293Z" fill="#F2F5F7"/>
  <path d="m72.566 45.309 1.723-5.649h1.512l-2.543 7.307a4.986 4.986 0 0 1-.229.51 2.313 2.313 0 0 1-.369.521 1.637 1.637 0 0 1-.556.404 1.877 1.877 0 0 1-.81.158 1.8 1.8 0 0 1-.362-.035 5.785 5.785 0 0 1-.323-.064l-.005-1.078a5.127 5.127 0 0 0 .28.017c.235 0 .43-.029.587-.087a.812.812 0 0 0 .38-.27c.102-.125.188-.293.258-.504l.457-1.23Zm-.972-5.649 1.506 4.746.252 1.489-.979.252-2.303-6.487h1.524Zm8.783 4.63 1.887-4.63h1.224L80.858 46h-.962l-2.624-6.34h1.224l1.881 4.63Zm-2.244-4.63V46H76.72v-6.34h1.412ZM82.62 46v-6.34h1.418V46H82.62Zm7.33-3.691v1.113h-3.28v-1.113h3.281Zm-2.87-2.649V46h-1.413v-6.34h1.412Zm3.89 0V46h-1.412v-6.34h1.412Zm2.554 2.016h1.87c.546 0 1.011.092 1.394.275.383.184.674.44.873.768.203.324.305.695.305 1.113 0 .309-.057.596-.17.861-.113.262-.281.49-.504.686a2.324 2.324 0 0 1-.809.457 3.33 3.33 0 0 1-1.09.164h-2.806v-6.34h1.418v5.22h1.388c.282 0 .506-.048.674-.146a.872.872 0 0 0 .364-.38 1.147 1.147 0 0 0 0-1.008.898.898 0 0 0-.364-.393c-.168-.101-.392-.152-.674-.152h-1.869v-1.125Zm6.938-2.016V46H99.05v-6.34h1.412Zm4.465 6.457a3.39 3.39 0 0 1-1.272-.228 2.812 2.812 0 0 1-.961-.65 2.884 2.884 0 0 1-.603-.98 3.418 3.418 0 0 1-.211-1.212v-.234c0-.497.072-.946.217-1.348.144-.403.345-.746.603-1.031.258-.29.563-.51.914-.662a2.846 2.846 0 0 1 1.143-.229c.453 0 .849.076 1.189.229.34.152.621.367.844.644.227.274.395.6.504.979.113.378.17.796.17 1.253v.604h-4.899v-1.014h3.504v-.111a1.981 1.981 0 0 0-.152-.715 1.22 1.22 0 0 0-.416-.539c-.188-.137-.438-.205-.75-.205-.234 0-.443.05-.627.152-.18.098-.33.24-.451.428a2.244 2.244 0 0 0-.281.68 3.793 3.793 0 0 0-.094.885v.234c0 .277.037.535.111.773.078.235.192.44.34.615.148.176.328.315.539.417.211.097.451.146.721.146.34 0 .642-.068.908-.205.266-.137.496-.33.691-.58l.745.72a2.9 2.9 0 0 1-.534.575c-.218.18-.486.326-.802.44-.313.112-.676.17-1.09.17Zm9.568-6.457V46h-1.418v-6.34h1.418Zm2.08 0v1.113h-5.543V39.66h5.543Zm3.305 6.457a3.39 3.39 0 0 1-1.272-.228 2.812 2.812 0 0 1-.961-.65 2.9 2.9 0 0 1-.603-.98 3.418 3.418 0 0 1-.211-1.212v-.234c0-.497.072-.946.217-1.348.144-.403.345-.746.603-1.031.258-.29.563-.51.914-.662a2.846 2.846 0 0 1 1.143-.229c.453 0 .85.076 1.189.229.34.152.621.367.844.644.227.274.395.6.504.979.113.378.17.796.17 1.253v.604h-4.898v-1.014h3.503v-.111a1.96 1.96 0 0 0-.152-.715 1.213 1.213 0 0 0-.416-.539c-.187-.137-.437-.205-.75-.205-.234 0-.443.05-.627.152-.18.098-.33.24-.451.428a2.244 2.244 0 0 0-.281.68 3.793 3.793 0 0 0-.094.885v.234c0 .277.037.535.111.773.078.235.192.44.34.615.149.176.328.315.539.417.211.097.451.146.721.146.34 0 .642-.068.908-.205.266-.137.496-.33.691-.58l.745.72a2.9 2.9 0 0 1-.534.575c-.218.18-.486.326-.802.44-.313.112-.676.17-1.09.17Zm4.717-6.457 1.207 2.104 1.23-2.104h1.553l-1.922 3.112L128.664 46h-1.553l-1.289-2.191L124.533 46h-1.558l1.992-3.228-1.916-3.112h1.547Zm9.287 2.649v1.113h-3.281v-1.113h3.281Zm-2.871-2.649V46h-1.412v-6.34h1.412Zm3.89 0V46h-1.412v-6.34h1.412Zm1.237 3.24v-.134c0-.457.066-.881.199-1.272.133-.394.324-.736.574-1.025.254-.293.563-.52.926-.68a3.011 3.011 0 0 1 1.242-.246c.465 0 .879.082 1.242.246.367.16.678.387.932.68.254.289.447.63.58 1.025.133.39.199.815.199 1.272v.134c0 .457-.066.881-.199 1.272-.133.39-.326.732-.58 1.025a2.693 2.693 0 0 1-.926.68c-.363.16-.775.24-1.236.24-.465 0-.881-.08-1.248-.24a2.684 2.684 0 0 1-.926-.68 3.044 3.044 0 0 1-.58-1.025 3.922 3.922 0 0 1-.199-1.272Zm1.412-.134v.134c0 .285.029.555.088.809.058.254.15.476.275.668.125.191.285.342.48.451.196.11.428.164.698.164.261 0 .488-.054.679-.164.196-.11.356-.26.481-.451.125-.192.217-.414.275-.668.063-.254.094-.524.094-.809v-.134c0-.282-.031-.547-.094-.797a2.032 2.032 0 0 0-.281-.674 1.346 1.346 0 0 0-.48-.457 1.324 1.324 0 0 0-.686-.17 1.35 1.35 0 0 0-.691.17c-.192.11-.35.262-.475.457a2.11 2.11 0 0 0-.275.674c-.059.25-.088.515-.088.797Zm9.832-3.106v1.125h-3.094V39.66h3.094Zm1.107 0V46h-1.412v-6.34h1.412Zm-4.547 0h1.395l-.17 3.135c-.024.465-.07.875-.141 1.23a4.105 4.105 0 0 1-.269.909c-.114.25-.252.453-.416.609a1.544 1.544 0 0 1-.574.346 2.294 2.294 0 0 1-.739.111h-.439l-.006-1.16.223-.018a.868.868 0 0 0 .375-.111.849.849 0 0 0 .269-.281 1.55 1.55 0 0 0 .188-.47c.05-.19.089-.417.117-.679.031-.261.054-.566.07-.914l.117-2.707Zm5.778 3.24v-.134c0-.457.066-.881.199-1.272.133-.394.324-.736.574-1.025.254-.293.563-.52.926-.68a3.011 3.011 0 0 1 1.242-.246c.465 0 .879.082 1.242.246.367.16.678.387.932.68.254.289.447.63.58 1.025.133.39.199.815.199 1.272v.134c0 .457-.066.881-.199 1.272-.133.39-.326.732-.58 1.025a2.693 2.693 0 0 1-.926.68c-.363.16-.775.24-1.236.24-.465 0-.881-.08-1.248-.24a2.684 2.684 0 0 1-.926-.68 3.044 3.044 0 0 1-.58-1.025 3.922 3.922 0 0 1-.199-1.272Zm1.412-.134v.134c0 .285.029.555.088.809.058.254.15.476.275.668.125.191.285.342.481.451.195.11.427.164.697.164a1.336 1.336 0 0 0 1.16-.615c.125-.192.217-.414.275-.668.063-.254.094-.524.094-.809v-.134c0-.282-.031-.547-.094-.797a2.032 2.032 0 0 0-.281-.674 1.346 1.346 0 0 0-.48-.457 1.324 1.324 0 0 0-.686-.17 1.35 1.35 0 0 0-.691.17c-.192.11-.35.262-.475.457a2.11 2.11 0 0 0-.275.674c-.059.25-.088.515-.088.797Zm9.885-3.106v1.125h-2.766V46h-1.412v-6.34h4.178Zm2.279 4.278 2.49-4.278h1.412V46h-1.412v-4.283L163.299 46h-1.412v-6.34h1.412v4.278Zm6.855 0 2.491-4.278h1.412V46h-1.412v-4.283L170.154 46h-1.412v-6.34h1.412v4.278Z" fill="#fff" fill-opacity=".7"/>
  <path d="M33.917 14.666c1.193 0 2.201.77 2.581 1.834h9.504a2.746 2.746 0 0 1 2.581-1.834 2.753 2.753 0 0 1 2.75 2.75 2.753 2.753 0 0 1-2.75 2.75 2.746 2.746 0 0 1-2.581-1.833h-9.505a2.746 2.746 0 0 1-2.581 1.833 2.753 2.753 0 0 1-2.75-2.75 2.754 2.754 0 0 1 2.75-2.75Zm14.666 3.667a.918.918 0 0 0 0-1.833.918.918 0 0 0 0 1.833Zm-14.666 0a.918.918 0 0 0 0-1.833.918.918 0 0 0 0 1.833Z" fill="#00B2FF"/>
  <path d="M26.583 20.335v-5.669c0-.243.097-.476.269-.648l3.667-3.666a.914.914 0 0 1 .648-.269h2.918a2.746 2.746 0 0 1 2.582-1.833 2.753 2.753 0 0 1 2.75 2.75 2.753 2.753 0 0 1-2.75 2.75 2.746 2.746 0 0 1-2.582-1.834h-2.539l-3.13 3.13v5.289a2.746 2.746 0 0 1 1.834 2.581 2.753 2.753 0 0 1-2.75 2.75 2.753 2.753 0 0 1-2.75-2.75c0-1.193.77-2.201 1.833-2.581Zm10.084-8.419a.918.918 0 0 0 0-1.833.918.918 0 0 0 0 1.833ZM27.5 23.834a.918.918 0 0 0 0-1.833.918.918 0 0 0 0 1.833Zm-17.417-.001c.424 0 .82.104 1.178.276l1.572-1.572V13.75c0-.244.097-.477.269-.648l9.174-9.174A2.705 2.705 0 0 1 22 2.75 2.753 2.753 0 0 1 24.75 0a2.753 2.753 0 0 1 2.75 2.75 2.753 2.753 0 0 1-2.75 2.75c-.424 0-.82-.104-1.178-.276l-8.905 8.905v8.787a.913.913 0 0 1-.269.648l-1.84 1.841c.172.358.275.754.275 1.178a2.753 2.753 0 0 1-2.75 2.75 2.753 2.753 0 0 1-2.75-2.75 2.753 2.753 0 0 1 2.75-2.75ZM24.75 3.667a.918.918 0 0 0 0-1.834.918.918 0 0 0 0 1.834ZM10.083 27.5a.918.918 0 0 0 0-1.834.918.918 0 0 0 0 1.834Zm-8.25-14.498V9.167c0-.244.097-.477.269-.649l6.417-6.416a.914.914 0 0 1 .648-.269h4.752A2.746 2.746 0 0 1 16.5 0a2.753 2.753 0 0 1 2.75 2.75A2.753 2.753 0 0 1 16.5 5.5a2.746 2.746 0 0 1-2.581-1.833H9.546l-5.88 5.879v3.456A2.746 2.746 0 0 1 5.5 15.583a2.753 2.753 0 0 1-2.75 2.75A2.753 2.753 0 0 1 0 15.583c0-1.193.77-2.202 1.833-2.581ZM16.5 3.667a.918.918 0 0 0 0-1.834.918.918 0 0 0 0 1.834ZM2.75 16.5a.918.918 0 0 0 0-1.834.918.918 0 0 0 0 1.834Zm11.916 33.169V36.497a2.747 2.747 0 0 1-1.833-2.58 2.753 2.753 0 0 1 2.75-2.75c1.194 0 2.202.768 2.582 1.832h9.504a2.746 2.746 0 0 1 2.581-1.833c1.194 0 2.202.77 2.581 1.833h5.29l3.405-3.405a2.705 2.705 0 0 1-.276-1.178 2.753 2.753 0 0 1 2.75-2.75 2.753 2.753 0 0 1 2.75 2.75 2.753 2.753 0 0 1-2.75 2.75c-.423 0-.82-.103-1.178-.276l-3.674 3.674a.914.914 0 0 1-.648.269h-5.669a2.746 2.746 0 0 1-2.581 1.833 2.746 2.746 0 0 1-2.581-1.833h-9.505a2.747 2.747 0 0 1-1.665 1.664V49.67a2.746 2.746 0 0 1 1.833 2.581 2.753 2.753 0 0 1-2.75 2.75 2.753 2.753 0 0 1-2.75-2.75c0-1.193.77-2.202 1.834-2.581ZM44 29.333a.918.918 0 0 0 0-1.833.917.917 0 0 0 0 1.833Zm-13.75 5.5a.918.918 0 0 0 0-1.834.917.917 0 0 0 0 1.834ZM15.583 53.166a.918.918 0 0 0 0-1.833.918.918 0 0 0 0 1.833Zm0-18.333a.918.918 0 0 0 0-1.834.918.918 0 0 0 0 1.834Z" fill="#00B2FF"/>
  <path d="M19.25 18.502v-2.919a.91.91 0 0 1 .269-.648L30.526 3.928a2.705 2.705 0 0 1-.276-1.178A2.753 2.753 0 0 1 33 0c1.194 0 2.202.77 2.581 1.833h3.836c.506 0 .916.41.916.917v2.37l3.406 3.406a2.705 2.705 0 0 1 1.178-.276 2.753 2.753 0 0 1 2.75 2.75 2.753 2.753 0 0 1-2.75 2.75 2.753 2.753 0 0 1-2.75-2.75c0-.424.103-.82.276-1.178l-3.674-3.674A.913.913 0 0 1 38.5 5.5V3.667h-2.919A2.746 2.746 0 0 1 33 5.5a2.71 2.71 0 0 1-1.178-.276L21.083 15.963v2.539a2.746 2.746 0 0 1 1.834 2.581 2.753 2.753 0 0 1-2.75 2.75 2.753 2.753 0 0 1-2.75-2.75c0-1.193.769-2.202 1.833-2.581Zm25.667-6.585a.918.918 0 0 0 0-1.834.918.918 0 0 0 0 1.833ZM33 3.666a.918.918 0 0 0 0-1.834.918.918 0 0 0 0 1.834ZM20.167 22a.917.917 0 1 0-.002-1.835.917.917 0 0 0 .002 1.835Z" fill="#00B2FF"/>
  <path d="M22 25.666c1.194 0 2.202.77 2.581 1.834h10.79l5.23-5.232A.914.914 0 0 1 41.25 22h9.704l2.213-2.213v-7.491l-7.072-7.072a2.705 2.705 0 0 1-1.178.276 2.753 2.753 0 0 1-2.75-2.75A2.753 2.753 0 0 1 44.917 0a2.753 2.753 0 0 1 2.75 2.75c0 .423-.104.82-.276 1.178l7.34 7.34a.913.913 0 0 1 .269.648v8.25a.913.913 0 0 1-.269.648l-2.75 2.75a.914.914 0 0 1-.648.269H41.63l-5.232 5.231a.914.914 0 0 1-.648.269H24.581A2.746 2.746 0 0 1 22 31.166a2.753 2.753 0 0 1-2.75-2.75 2.753 2.753 0 0 1 2.75-2.75ZM44.917 1.833a.918.918 0 0 0 0 1.834.918.918 0 0 0 0-1.834ZM22 29.333a.918.918 0 0 0 0-1.833.918.918 0 0 0 0 1.833ZM2.75 22c.424 0 .82.103 1.178.276l3.405-3.406v-5.289A2.746 2.746 0 0 1 5.5 11a2.753 2.753 0 0 1 2.75-2.75A2.753 2.753 0 0 1 11 11c0 1.193-.77 2.202-1.833 2.581v5.669a.913.913 0 0 1-.269.648l-3.674 3.674c.172.358.276.754.276 1.178 0 1.193-.77 2.201-1.833 2.58v.707L10.73 35.1a.912.912 0 0 1 .269.648v1.086a2.746 2.746 0 0 1 1.833 2.581A2.746 2.746 0 0 1 11 41.997v2.172a2.746 2.746 0 0 1 1.833 2.581 2.753 2.753 0 0 1-2.75 2.75 2.753 2.753 0 0 1-2.75-2.75c0-1.193.77-2.202 1.834-2.581v-2.172a2.746 2.746 0 0 1-1.834-2.581c0-1.194.77-2.202 1.834-2.581v-.706l-7.065-7.065a.913.913 0 0 1-.269-.648v-1.085A2.746 2.746 0 0 1 0 24.75 2.753 2.753 0 0 1 2.75 22Zm5.5-10.084a.918.918 0 0 0 0-1.833.918.918 0 0 0 0 1.833Zm1.833 35.75a.918.918 0 0 0 0-1.833.918.918 0 0 0 0 1.833Zm0-7.333a.918.918 0 0 0 0-1.834.918.918 0 0 0 0 1.834ZM2.75 25.666a.918.918 0 0 0 0-1.833.918.918 0 0 0 0 1.833Z" fill="#00B2FF"/>
</g></symbol><symbol id="ok" viewBox="0 0 30 30"><g fill="none">
  <path d="M15.171 12.643c1.157 0 2.057-.965 2.036-2.014.021-1.05-.857-2.036-2.014-2.036-1.115 0-2.036.9-2.036 2.014 0 1.114.9 2.036 2.014 2.036Z" fill="#F8FDFF"/>
  <path d="M15 0C6.729 0 0 6.729 0 15c0 8.293 6.729 15 15 15 8.293 0 15-6.729 15-15 .021-8.271-6.707-15-15-15Zm.214 5.679c2.7 0 4.929 2.228 4.907 4.95 0 2.742-2.25 4.95-4.992 4.907-2.7-.043-4.865-2.25-4.865-4.929a4.934 4.934 0 0 1 4.95-4.928Zm5.507 11.571c0 .043-.021.064-.021.107a1.401 1.401 0 0 1-.643 1.007c-.236.15-.493.3-.75.429a9.662 9.662 0 0 1-2.036.75c-.085.021-.085.021-.021.086l1.178 1.178 1.5 1.5a1.43 1.43 0 0 1-.385 2.314c-.15.086-.322.108-.493.15h-.279c-.021 0-.043 0-.043-.021-.342-.043-.62-.214-.878-.45l-2.593-2.593c-.064-.064-.064-.064-.128 0l-2.615 2.614c-.15.15-.3.258-.493.343-.128.065-.278.086-.407.107h-.278c-.043 0-.065-.021-.107-.021-.579-.107-.965-.429-1.136-.986-.172-.557-.043-1.05.364-1.457l1.072-1.071 1.585-1.586c.064-.064.064-.064-.021-.086-.022 0-.065-.021-.086-.021a9.26 9.26 0 0 1-2.678-1.136c-.493-.321-.729-.793-.665-1.371a1.44 1.44 0 0 1 2.207-1.072c.172.107.322.193.515.279a6.1 6.1 0 0 0 3.128.643 6.069 6.069 0 0 0 1.607-.3c.515-.172.965-.407 1.436-.665a1.445 1.445 0 0 1 2.079.75c.043.129.064.236.085.365v.214Z" fill="#F8FDFF"/>
</g></symbol><symbol id="phone" viewBox="0 0 21 20"><g fill="none">
  <path d="M16.315 12.39c-.41-.427-.905-.655-1.43-.655-.519 0-1.018.224-1.445.65l-1.336 1.33c-.11-.06-.22-.114-.325-.17a5.407 5.407 0 0 1-.419-.223c-1.25-.793-2.388-1.828-3.479-3.166-.528-.667-.883-1.228-1.141-1.798.347-.316.668-.646.98-.962.12-.119.237-.24.356-.36.887-.886.887-2.034 0-2.92L6.922 2.963c-.131-.13-.267-.265-.393-.4-.254-.262-.52-.532-.795-.786-.41-.405-.9-.62-1.416-.62-.516 0-1.015.215-1.438.62l-.008.009-1.437 1.448a3.086 3.086 0 0 0-.918 1.962C.416 6.43.78 7.577 1.058 8.33c.685 1.844 1.708 3.554 3.234 5.386a19.89 19.89 0 0 0 6.624 5.18c.973.46 2.27 1.004 3.72 1.097.09.004.182.008.267.008.976 0 1.796-.35 2.439-1.047.004-.008.013-.012.017-.021.22-.266.473-.506.74-.764.181-.173.367-.355.55-.544.418-.435.637-.942.637-1.461 0-.523-.224-1.026-.65-1.448l-2.321-2.326Zm1.513 4.444c-.004 0-.004.004 0 0-.165.177-.334.338-.516.515-.274.262-.553.536-.816.844-.426.456-.93.671-1.589.671-.063 0-.131 0-.194-.004-1.256-.08-2.423-.57-3.298-.988a18.775 18.775 0 0 1-6.24-4.88c-1.44-1.734-2.404-3.338-3.043-5.06-.393-1.051-.537-1.87-.473-2.643.042-.494.232-.903.583-1.253l1.442-1.44c.207-.194.427-.3.642-.3.266 0 .482.16.617.296l.013.013c.258.24.503.49.76.755.132.135.267.27.403.41l1.154 1.152c.448.448.448.861 0 1.309-.123.122-.241.244-.364.363-.355.363-.693.7-1.061 1.03-.008.008-.017.012-.021.02-.364.364-.296.718-.22.959l.013.038c.3.726.723 1.41 1.365 2.224l.004.005c1.167 1.435 2.397 2.554 3.754 3.41.173.11.351.199.52.283.152.076.296.148.419.224.017.008.034.021.05.03a.917.917 0 0 0 .419.105c.35 0 .57-.22.642-.291l1.446-1.444c.144-.143.372-.316.638-.316.263 0 .478.164.61.308a.34.34 0 0 0 .008.008l2.329 2.326c.435.43.435.874.004 1.321ZM11.31 4.757a5.363 5.363 0 0 1 2.916 1.512A5.378 5.378 0 0 1 15.74 9.18a.567.567 0 0 0 .562.473c.034 0 .063-.004.097-.008a.57.57 0 0 0 .47-.659 6.508 6.508 0 0 0-1.831-3.525 6.523 6.523 0 0 0-3.53-1.827.574.574 0 0 0-.66.464.564.564 0 0 0 .461.658Zm9.181 4.065a10.705 10.705 0 0 0-3.014-5.804 10.732 10.732 0 0 0-5.812-3.01.569.569 0 1 0-.186 1.124 9.61 9.61 0 0 1 5.195 2.688 9.559 9.559 0 0 1 2.693 5.188.567.567 0 0 0 .562.473.56.56 0 0 0 .562-.659Z" fill="#00B2FF"/>
</g></symbol><symbol id="pinterest" viewBox="0 0 30 30"><g fill="none">
  <path d="M15 0c8.285 0 15 6.716 15 15 0 8.285-6.715 15-15 15S0 23.285 0 15C0 6.716 6.715 0 15 0Z" fill="#F8FDFF"/>
  <path d="M15 5C9.482 5 5 9.482 5 15s4.482 10 10 10 10-4.482 10-10S20.518 5 15 5Zm0 .87A9.124 9.124 0 0 1 24.13 15 9.124 9.124 0 0 1 15 24.13a9.148 9.148 0 0 1-2.654-.392c.374-.625.857-1.519 1.049-2.257l.583-2.222c.304.581 1.194 1.073 2.141 1.073 2.82 0 4.852-2.593 4.852-5.814 0-3.09-2.52-5.4-5.764-5.4-4.035 0-6.176 2.708-6.176 5.657 0 1.371.73 3.078 1.897 3.622.177.082.272.046.313-.125.03-.13.189-.765.26-1.06a.28.28 0 0 0-.065-.268c-.386-.469-.696-1.33-.696-2.133 0-2.062 1.56-4.058 4.22-4.058 2.296 0 3.905 1.566 3.905 3.804 0 2.528-1.277 4.28-2.938 4.28-.918 0-1.605-.759-1.385-1.69.264-1.11.775-2.31.775-3.112 0-.717-.385-1.316-1.183-1.316-.938 0-1.692.97-1.692 2.27 0 .827.28 1.387.28 1.387s-.926 3.918-1.096 4.647c-.17.729-.124 1.71-.054 2.44A9.124 9.124 0 0 1 5.87 15 9.124 9.124 0 0 1 15 5.87Z" fill="#041827"/>
</g></symbol><symbol id="price" viewBox="0 0 35 35">
  <path d="M11.07 8.58a.69.69 0 0 0-.97 0 .69.69 0 0 0 0 .97.69.69 0 0 0 .97 0 .69.69 0 0 0 0-.97Z"/>
  <path d="M34.8 2.86 33.95 2l.85-.84a.68.68 0 0 0-.97-.97l-.84.84-.83-.83a.68.68 0 0 0-.49-.2H20.1a3.4 3.4 0 0 0-2.42 1l-5.77 5.77a.68.68 0 0 0 .96.97l5.78-5.78c.39-.39.9-.6 1.45-.6h11.3l.63.64-2.53 2.54a2.8 2.8 0 1 0 .96.97L33 2.98l.64.64V14.9c0 .55-.22 1.06-.6 1.45L16.33 33.03a2.04 2.04 0 0 1-2.9 0L1.97 21.56a2.04 2.04 0 0 1 0-2.9l7.37-7.37a.68.68 0 0 0-.97-.97L1 17.69a3.4 3.4 0 0 0 0 4.84L12.47 34a3.41 3.41 0 0 0 4.84 0L34 17.32c.65-.65 1-1.5 1-2.42V3.34a.68.68 0 0 0-.2-.48Zm-5.74 5.1a1.42 1.42 0 0 1-2.03 0 1.43 1.43 0 0 1 1.43-2.38l-.8.79a.68.68 0 0 0 .97.96l.8-.78c.13.48.01 1.03-.37 1.41Z"/>
  <path d="M29.2 13.76 21.23 5.8a2.71 2.71 0 0 0-3.82 0L4.8 18.4a2.69 2.69 0 0 0 0 3.83l7.97 7.97a2.69 2.69 0 0 0 3.82 0L29.2 17.6a2.69 2.69 0 0 0 0-3.84Zm-.97 2.87-12.6 12.6a1.33 1.33 0 0 1-1.9 0l-7.96-7.96a1.33 1.33 0 0 1 0-1.9l12.6-12.6a1.34 1.34 0 0 1 1.9 0l7.96 7.96a1.33 1.33 0 0 1 0 1.9Z"/>
  <path d="M22.29 13.68a.68.68 0 0 0-.97-.97l-.39.4a2.63 2.63 0 0 0-3.25.28 2.5 2.5 0 0 0-.72 1.9 2.88 2.88 0 0 0 .85 1.9c.55.55.62 1.38.14 1.85-.47.48-1.3.42-1.86-.13-.55-.55-.6-1.39-.13-1.86a.68.68 0 0 0-.97-.97c-.85.85-.94 2.2-.29 3.25l-.47.47a.68.68 0 0 0 .97.97l.47-.47c.46.29.97.43 1.48.43.65 0 1.29-.24 1.77-.72 1-1 .94-2.7-.14-3.79a1.51 1.51 0 0 1-.45-1c-.02-.33.1-.64.31-.86.48-.47 1.31-.41 1.86.14s.61 1.38.14 1.86a.68.68 0 0 0 .97.96c.85-.85.94-2.2.29-3.25l.39-.4Zm-6.92 11.33-3.5-3.51a.68.68 0 0 0-.98.97l3.51 3.5a.68.68 0 0 0 .97 0 .68.68 0 0 0 0-.96Zm-5.38-5.38a.69.69 0 0 0-.97 0 .69.69 0 0 0 0 .96.69.69 0 0 0 .97 0 .69.69 0 0 0 0-.96Z"/>
</symbol><symbol id="privacy" viewBox="0 0 35 35">
  <path d="M17.5 11.02c-.38 0-.68.36-.68.8 0 .44.3.8.68.8.38 0 .68-.36.68-.8 0-.44-.3-.8-.68-.8Z"/>
  <path d="M32.95 15.81h-2.66C28.89 11.13 26.85 2.92 23.17.6c-1.85-1.16-3.59-.35-4.24 1.3-.28.7-.84 1.06-1.43 1.06-.6 0-1.15-.37-1.43-1.06-.63-1.6-2.33-2.48-4.1-1.47C8.21 2.56 6.11 11.1 4.7 15.8H2.05C.92 15.81 0 16.9 0 18.21c0 1.32.92 2.4 2.05 2.4h30.9c1.13 0 2.05-1.07 2.05-2.4 0-1.32-.92-2.4-2.05-2.4ZM7.1 12.61h7.66c.37 0 .68-.35.68-.8 0-.43-.3-.8-.68-.8H7.59c2.06-6.65 3.99-8.58 4.97-9.14 1.07-.61 1.96-.1 2.27.7.5 1.26 1.54 2 2.67 2s2.17-.74 2.67-2c.32-.82 1.21-1.28 2.35-.56.99.62 2.9 2.62 4.89 9h-7.18c-.37 0-.68.37-.68.8 0 .45.3.8.68.8h7.66l.95 3.2H6.16l.95-3.2Zm25.84 6.4H2.05c-.38 0-.68-.36-.68-.8 0-.44.3-.8.68-.8h30.9c.38 0 .68.36.68.8 0 .44-.3.8-.68.8ZM16.13 23.8H5.2c-.38 0-.69.37-.69.8v3.2c0 3.97 2.76 7.2 6.15 7.2 2.57 0 4.85-1.85 5.75-4.63a2.28 2.28 0 0 1 2.18 0c.9 2.78 3.18 4.63 5.75 4.63 3.39 0 6.15-3.23 6.15-7.2v-3.2c0-.43-.3-.8-.69-.8H18.87c-.38 0-.69.37-.69.8v.8h-1.36v-.8c0-.43-.31-.8-.69-.8Zm-5.47 9.6c-2.63 0-4.78-2.5-4.78-5.6v-2.4h9.57v2.4c0 3.1-2.14 5.6-4.79 5.6Zm8.9-8h9.56v2.4c0 3.1-2.15 5.6-4.78 5.6-2.66 0-4.79-2.5-4.79-5.6v-2.4ZM18.17 27v.8c0 .26.02.52.04.77a3.5 3.5 0 0 0-1.44 0c.02-.25.04-.5.04-.76V27h1.36Z"/>
  <path d="M10.66 30.2c-1.13 0-2.05-1.07-2.05-2.4 0-.44-.3-.8-.68-.8-.38 0-.68.36-.68.8 0 2.2 1.53 4 3.41 4 .38 0 .69-.36.69-.8 0-.44-.3-.8-.69-.8Zm13.68 1.6c1.88 0 3.41-1.8 3.41-4 0-.44-.3-.8-.68-.8-.38 0-.68.36-.68.8 0 1.33-.92 2.4-2.05 2.4-.38 0-.69.36-.69.8 0 .44.3.8.69.8Z"/>
</symbol><symbol id="provider" viewBox="0 0 35 35">
  <path d="M31.26 27.9c.38-.53.6-1.16.6-1.85v-4.1c0-.38-.3-.69-.68-.69h-3.06a2.56 2.56 0 0 0-2.56 2.56v2.23c0 .69.22 1.32.6 1.84a4.4 4.4 0 0 0-1.34.45 5.82 5.82 0 0 0-4.3-2.56h-.01a4.02 4.02 0 0 0 1.03-2.7V17.5a.68.68 0 0 0-.69-.68H16.7a3.24 3.24 0 0 0-3.24 3.23v3.03c0 1.04.4 1.98 1.03 2.7h-.02a5.82 5.82 0 0 0-4.3 2.56 4.4 4.4 0 0 0-1.33-.45c.38-.52.6-1.15.6-1.84v-4.1c0-.38-.3-.69-.68-.69H5.7a2.56 2.56 0 0 0-2.56 2.56v2.23c0 .69.22 1.32.6 1.84A4.46 4.46 0 0 0 0 32.3v2.03c0 .37.3.68.68.68h33.64c.37 0 .68-.3.68-.68V32.3a4.46 4.46 0 0 0-3.74-4.4ZM4.51 23.81c0-.66.53-1.2 1.19-1.2h2.37v.84c0 .4-.33.74-.74.74H4.51v-.38Zm0 1.75h2.82c.26 0 .51-.05.74-.14v.62a1.78 1.78 0 0 1-3.56 0v-.48Zm2.22 3.63-.44.44-.44-.44h.88Zm2.47 2.36v2.07H1.37V32.3a3.1 3.1 0 0 1 2.59-3.05L5.8 31.1a.68.68 0 0 0 .96 0l1.85-1.85c.33.05.64.16.94.31a5.6 5.6 0 0 0-.36 2.01Zm8.3-5.8a2.67 2.67 0 0 1-2.67-2.68v-.9h4.09c.45 0 .88-.12 1.25-.32v1.22c0 1.47-1.2 2.67-2.67 2.67Zm1.2 1.36-1.2 1.19-1.2-1.2h2.4Zm-3.87-7.07c0-1.03.84-1.87 1.87-1.87h3.47v1.38c0 .7-.56 1.25-1.25 1.25h-4.09v-.76Zm9.6 13.58H10.57v-1.36h4.45a.68.68 0 1 0 0-1.37h-4.4a4.45 4.45 0 0 1 3.8-3.74l2.6 2.6a.68.68 0 0 0 .96 0l2.6-2.6a4.45 4.45 0 0 1 3.85 4.4v2.07Zm2.5-9.8c0-.67.53-1.2 1.2-1.2h2.36v.83c0 .4-.33.74-.74.74h-2.82v-.38Zm0 1.74h2.82c.26 0 .51-.05.74-.14v.62a1.78 1.78 0 0 1-3.56 0v-.48Zm2.22 3.63-.44.44-.44-.44h.88Zm-3.35 4.43v-2.07c0-.7-.12-1.38-.36-2 .3-.16.61-.27.94-.32l1.85 1.85a.68.68 0 0 0 .96 0l1.85-1.85a3.1 3.1 0 0 1 2.6 3.05v1.34H25.8ZM20.87 4.47a.68.68 0 0 0-.97 0l-3.35 3.35-1.45-1.45a.68.68 0 1 0-.97.97l1.93 1.93a.68.68 0 0 0 .97 0l3.84-3.84a.68.68 0 0 0 0-.96Z"/>
  <path d="M20.3.6a.68.68 0 0 0-.56 1.24 5.51 5.51 0 1 1-4.5.01.68.68 0 1 0-.56-1.24 6.88 6.88 0 0 0 2.82 13.13A6.88 6.88 0 0 0 20.3.59Z"/>
  <path d="M17.52 0h-.02a.68.68 0 0 0 0 1.37h.02a.68.68 0 0 0 0-1.37Zm.46 31.1a.69.69 0 0 0-.96 0 .69.69 0 0 0 0 .97.69.69 0 0 0 .96 0 .69.69 0 0 0 0-.97Z"/>
</symbol><symbol id="stopwatch" viewBox="0 0 35 35">
  <path d="m3.85 11.66-1.8-1.47a1.8 1.8 0 0 1 0-2.9 2.9 2.9 0 0 1 3.54 0L7.5 8.86c2-1.14 4.28-1.93 6.67-2.3V4.5H12.5c-.46 0-.83-.3-.83-.68V2.05C11.67.92 12.79 0 14.17 0h6.66c1.38 0 2.5.92 2.5 2.05v1.78c0 .38-.37.68-.83.68h-1.67v2.04a19.7 19.7 0 0 1 6.67 2.31l1.9-1.56a2.9 2.9 0 0 1 3.54 0c.97.8.97 2.1 0 2.9l-1.8 1.47A12.84 12.84 0 0 1 35 20.64C35 28.56 27.15 35 17.5 35S0 28.56 0 20.64c0-3.27 1.36-6.44 3.85-8.98Zm.56-3.4a.97.97 0 0 0-1.18 0 .6.6 0 0 0 0 .96l1.72 1.42c.4-.33.8-.64 1.22-.94L4.41 8.26Zm17.26-6.2c0-.39-.38-.7-.84-.7h-6.66c-.46 0-.84.31-.84.7v1.08h8.34V2.05ZM15.83 4.5v1.84c1.1-.08 2.23-.08 3.34 0V4.51h-3.34Zm15.94 3.75a.97.97 0 0 0-1.18 0L28.83 9.7c.42.3.83.6 1.22.94l1.72-1.42a.6.6 0 0 0 0-.96ZM17.5 33.63c8.73 0 15.83-5.82 15.83-12.99 0-3.15-1.4-6.2-3.93-8.57a15.2 15.2 0 0 0-2.32-1.77 17.8 17.8 0 0 0-9.58-2.64 17.8 17.8 0 0 0-9.58 2.64 15.2 15.2 0 0 0-2.32 1.77 11.73 11.73 0 0 0-3.93 8.57c0 7.17 7.1 13 15.83 13Z"/>
  <path d="M17.5 22.7c-1.38 0-2.5-.92-2.5-2.06 0-.89.7-1.65 1.67-1.93v-4.9c0-.38.37-.69.83-.69.46 0 .83.31.83.69v4.9C19.3 19 20 19.75 20 20.64c0 1.14-1.12 2.06-2.5 2.06Zm0-2.74c-.46 0-.83.3-.83.68 0 .38.37.69.83.69.46 0 .83-.3.83-.69 0-.37-.37-.68-.83-.68Z"/>
  <path d="M8.62 13.43a.6.6 0 0 1 .04-.03l.05-.04a13.34 13.34 0 0 1 5.25-2.55c.45-.1.9.1 1.04.46.13.36-.12.74-.56.85-1.46.35-2.82.96-3.98 1.78l.56.46a.6.6 0 0 1 0 .97.93.93 0 0 1-.6.2.93.93 0 0 1-.58-.2l-.56-.46a8.06 8.06 0 0 0-2.58 5.1h.8c.46 0 .83.3.83.67 0 .38-.37.69-.83.69h-.8a8.06 8.06 0 0 0 2.58 5.1l.56-.47a.97.97 0 0 1 1.18 0 .6.6 0 0 1 0 .97l-.56.46a12.07 12.07 0 0 0 6.2 2.12v-.66c0-.38.38-.69.84-.69.46 0 .83.31.83.69v.65a12 12 0 0 0 6.21-2.11l-.56-.46a.6.6 0 0 1 0-.97.97.97 0 0 1 1.18 0l.56.46a8.06 8.06 0 0 0 2.58-5.1h-.8c-.46 0-.83-.3-.83-.68 0-.37.37-.68.83-.68h.8a8.06 8.06 0 0 0-2.58-5.1l-.56.47a.93.93 0 0 1-.59.2.93.93 0 0 1-.59-.2.6.6 0 0 1 0-.97l.56-.46a11.75 11.75 0 0 0-3.98-1.78c-.44-.1-.69-.49-.56-.85.13-.36.6-.57 1.04-.46a13.34 13.34 0 0 1 5.3 2.59l.04.03A9.35 9.35 0 0 1 30 20.64a9.35 9.35 0 0 1-3.66 7.25l-.05.04a13.92 13.92 0 0 1-8.79 2.97c-3.31 0-6.43-1.06-8.8-2.97l-.04-.04-.04-.03A9.35 9.35 0 0 1 5 20.64a9.35 9.35 0 0 1 3.62-7.2Z"/>
  <path d="M17.5 11.76c-.46 0-.83-.3-.83-.69 0-.37.37-.68.83-.68.46 0 .83.3.83.68 0 .38-.37.69-.83.69Z"/>
</symbol><symbol id="vk" viewBox="0 0 30 30"><g fill="none">
  <path d="M21.62 17.45c-1.24-1.18-1.33-1.18-.27-2.54 1.33-1.73 3.09-3.91 1.5-3.91h-2.9c-.54 0-.63.36-.8.82-.7 1.73-2.12 4-2.65 3.63-.53-.36-.27-1.72-.27-3.9a.72.72 0 0 0-.17-.73c-.18-.18-.44-.37-.7-.37-.45-.09-.89-.18-1.33-.18-1.68 0-2.82.73-2.2.82 1.14.18 1.05 2.73.79 3.82-.44 1.9-2.2-1.46-3-3.18a.87.87 0 0 0-.88-.73h-2.3c-.35 0-.62.1-.62.36 0 .46 2.2 4.91 4.24 7.19 2.03 2.18 4.06 2 5.47 2 .18 0 .35-.1.44-.19a.7.7 0 0 0 .18-.45c0-1.46.53-2.18 1.5-1.18 1.06 1.09 1.32 1.82 2.64 1.82h2.39c.61 0 .79-.19.79-.46.09-.64-.97-1.82-1.85-2.64ZM15.35 0C23.55.18 30.1 7 30 15.27A14.9 14.9 0 0 1 14.9 30 14.98 14.98 0 0 1 0 15 15.19 15.19 0 0 1 15.35 0Z" fill="#F8FDFF"/>
</g></symbol></svg>